<svg xmlns="http://www.w3.org/2000/svg" xml:space="preserve" id="layer" x="0" y="0" style="enable-background:new 0 0 652 652" version="1.1" viewBox="25.9 210.68 600.03 231.33">
  <style>
    .st0{fill:#f15d22}
  </style>
  <path d="M219.5 334.9c0-4.9 9.5-9.4 15.1-9.4 4.9 0 7.9 1.6 8.4 4.9 4.1-2.5 9.2-4.6 14.8-4.6 8.4 0 16.8 4.1 21.7 10 4.6-4.1 12-10 22.2-10 27.5 0 29.5 27 29.5 50.9v6.1c0 5.6.2 10.4 1 14 0 6.3-13.2 5.9-13.2 5.9-6.1 0-11-2.1-11-6.3 1.3-4.6 1.6-10.9 1.6-15.5 0-2.1-.2-4.1-.2-6.6-.2-3-.2-.2-.2-3.6 0-12.8-1.5-28-12.8-28-3 0-9.9 4.1-9.9 7.6v6.1c0 4.3-.2 10-.2 16.1 0 13.2.3 20.4 1.8 24.2 0 6.1-8.4 6.1-11.9 6.1-4.1 0-12.2-1.3-12.2-5.6 0-1.8.2-3.1.3-4.9.3-3.8 1-2.5 1-13.2 0-12.2-.3-26.8-2.3-30.1-2.3-4.1-6.6-6.4-10.7-6.4-8.5 0-9.5 7.7-9.5 21.9V380c0 10.9.2 15.1 1.1 16.6 0 5.4-7.6 6.3-11.5 6.3-4.1 0-11.9-3.1-11.9-5.6 0-1.6.2-2.3.3-3.1.2-1.6.5-4.3.5-6.3v-14.6c0-8.1-.2-16.1-.2-21.9.4-5.9-.4-11-1.6-16.5m62.5 4.3.3.3c-.2 0-.2-.1-.3-.3m70.1-45.1c7.6-2.3 12.7 3 13.7 8.6l-.2-.2c1.5 7.4-9.1 11.7-13.2 12.3-5.4.8-7.6-.8-8.9-3.3h-1c-3.8-1.7-5.3-6.1-3.6-9.1 1.6-2 8.2-6.9 13-8.4h.2zm-9.9 101.8c.2-1 .3-2.1.3-4.9v-50.7c0-2.8-.5-4.8-1.1-6.3-2.6-6.4 7.1-7.7 10.2-7.7h1.3c5.9 0 11.7-.5 11.7 6.3v9.2c0 .2-.3 9.2-.3 25.8 0 12.9.2 25.2.8 28.3 1.1 6.3-4.4 6.9-10.9 6.9-5.8 0-13-.5-12-6.8v-.1zm71.1 12.2c0-.3-35.6-3.9-35.6-19.4 0-6.1 5.8-8.2 11.2-9.7-8.7-5.8-15.1-12.3-15.1-22.4 0-18 16-30.3 34.4-30.3 10.4 0 18.8 4.9 25.2 4.9 2.3 0 5.1-1.1 7.4-2h-.3c2.1-1 4.3-1.8 7.2-1.8 4.8 0 8.4 3.6 8.4 8.2 0 4.8-3.5 11-13.2 11h-1.8c1.3 3.9 1.8 6.6 1.8 10.2 0 16-17.1 26.8-32 26.8-1.5 0-3-.2-4.4-.3-1.3.5-5.1 3.3-5.1 4.3 0 2.3 52.4-2.1 52.4 26.7 0 21.4-27.5 27.7-44.5 27.7-14.7 0-42-1-42-21.7 0-12 11.9-15 16.6-15 6.1 0 2.2 6.1 2.2 13.2 0 9.2 18.4 10.5 25.8 10.5 7.6 0 19-2 19-11 0-8.6-12-9.2-17.8-9.9h.2zm-5.6-68.9c-7.1 0-10.4 8.1-10.4 15.8 0 8.1 4.6 15.6 12.2 15.6 6.8 0 10-6.3 10-13.7.1-8.3-3.9-17.7-11.8-17.7" class="st0"/>
  <path d="M496.5 402.8c-24.5 0-44.5-13.2-44.5-37.5 0-23.2 18.6-38.9 43.2-38.9 24.5 0 43.5 15.7 43.5 38.9 0 21.9-19.1 37.5-42.2 37.5m-4.4-62.9c-11.9 0-16.6 8.1-16.6 20.1 0 13.7 9.4 29.1 23.2 29.1 10.9 0 16.3-7.4 16.3-18.8 0-15-7.3-30.4-22.9-30.4m81.5 62.6h-4.1c-6.4 0-27.2-1.5-27.2-12.9 0-4.6 4.5-8.7 9.6-8.7 7.2 0 15.3 8.4 23 8.4 5.9 0 13-3.5 13-10.4 0-5.4-7.6-7.1-15.3-8.6-14-3-29-6.3-29-21.1 0-15.3 16.5-22.9 31.8-22.9 7.7 0 10.7 0 18.4 2.6l-.2-.2c0-.2 0-.2.2-.2 4.6 0 9.7 3.6 9.7 8.6 0 .7-.5 8.1-9.2 8.1-6.9 0-7.7-6.4-19.3-6.4-4.8 0-11.2 1.3-11.2 6.3 0 11.2 45.3 4.8 45.3 31.1.1 15.5-20.5 26.3-35.5 26.3m-358.8-10.6c-3.8-8.6-20-52.2-30.4-80.1-.3-.9-.7-1.8-1-2.7-4.5-11.9-7.8-20.9-8.5-23-.4-1.3-1.2-2.3-2.8-3.2-6.5-3.9-14.8-2.7-18.8.2l-.3.3c-.1.1-.2.2-.4.3-1.5 1.4-2.2 2.6-2.4 3.2 0 .1-.1.2-.1.2-.4.9-.7 2-.8 3.2.1 2.4-.2 5.4-.9 8.8 0 .2-.1.3-.1.5-.3 1.6-.7 3.2-1.2 4.9-.1.3-.2.7-.3 1-.2.6-.3 1.2-.5 1.8-.1.4-.2.7-.3 1.1-.2.6-.4 1.3-.6 1.9-.1.3-.2.7-.3 1-.3.9-.6 1.7-.9 2.6 0 .1-.1.2-.1.4-.3 1-.7 2-1.1 3.1-.1.4-.3.7-.4 1.1-.3.7-.5 1.4-.8 2.1-.2.4-.3.8-.5 1.2-.3.7-.5 1.4-.8 2-.2.4-.3.9-.5 1.3-.3.7-.6 1.5-.9 2.3-.2.4-.3.7-.4 1.1-.4 1.1-.9 2.2-1.4 3.3-.1.3-.2.6-.4.9-.4.9-.7 1.7-1.1 2.6-.2.4-.4.9-.6 1.3-.3.7-.6 1.4-.9 2.2-.2.5-.4.9-.6 1.4-.3.7-.6 1.5-1 2.2-.2.4-.4.9-.6 1.3-.4.9-.8 1.7-1.2 2.6-.1.3-.3.6-.4.9-.5 1.1-1 2.3-1.6 3.4-.2.4-.4.8-.5 1.2-.4.8-.7 1.5-1.1 2.3-.2.5-.4.9-.6 1.4-.3.7-.7 1.4-1 2.1-.2.5-.4.9-.7 1.4-.4.7-.7 1.5-1.1 2.2-.2.4-.4.8-.6 1.1-.5 1.1-1.1 2.2-1.6 3.3l-.3.6c-.4.9-.9 1.8-1.3 2.7l-.6 1.2c-.3.7-.7 1.4-1 2.1-.2.4-.4.8-.6 1.3-.3.7-.7 1.3-1 2l-.6 1.2c-.4.7-.8 1.5-1.1 2.2-.1.3-.3.6-.4.8-.5 1-1 2-1.5 2.9-.1.3-.3.5-.4.8-.4.7-.7 1.4-1.1 2.1-.2.3-.3.7-.5 1l-.9 1.8c-.2.3-.3.7-.5 1-.3.6-.7 1.2-1 1.8-.2.3-.3.5-.4.8-.5.9-1.1 2-1.5 2.8-.2.5-.4.7-.4 1.2.2 5.9 2.7 8.1 8.4 8.1 5 0 13.9-.6 15.5-7.2 1.8-7.2 7.4-22.2 11.4-31.8h-.2c1.7-3.8 3.1-7.1 3.8-9.1 4.1 0 22.6-1.3 30.7-2 0 0 13.7 36.1 15.5 42.3 2 6.3 7.2 7.1 12.2 7.1 7.6 0 12.8-2.8 12.8-7.2-.1-1.9-1.3-3.2-1.9-4.2m-63.1-51.1s10.5-28.1 10.6-27.8c1.4 5.9 7.2 19.7 9 25.1 0 .1-19.6 2.7-19.6 2.7" class="st0"/>
  <path d="M107.5 224.6c-.1-1-.8-1.9-2.3-1.5-2.5.6-3.6 2.6-4.4 5.9-1.1.3-2.5.9-3.9 2.8-1.5 2-1.2 4.9-1.2 4.9-4.6 1.2-5.8 6.3-4.3 8.7-.9.6-1.5 1.2-2 1.9-1.8 2.4-2.1 5.8-1.5 7.7.2.6.4 1.1.7 1.5-1 .6-1.9 1.4-2.5 2.4-2.2 3.5-1.5 6.5-.8 8.1.3.7.9 1.7 1.1 2 .1.1-2.9 1.9-4 5.9-.9 3.5.3 6.3 1.1 7.9-.1.1-.2.2-.2.3-.8 1-1.9 3-1.7 5.8.2 2 .8 3.3 1.5 4.4-1.1 1.2-2.4 4.3-2.1 7.5.3 2.4 1.6 4.1 2.1 4.8-3.9 4.6 1.7 11.5 2.4 9.5 2.6-7.2 5.1-14.4 7.8-21.5 8.9-23.7 17.4-46.1 14.2-69" style="fill:#fd5"/>
  <path d="M142.8 289.6c-.6-28.3-17.8-60.8-28.4-77-2.7-4.1-6.8-.8-3.6 2.4.3.3.5.8.9 1.6.4.9.7 2.5 1 4.3 4.5 24.8-4.4 48.4-13.8 73.4-10.1 26.9-20.6 54.7-14 85.2 0 .1 0 .2.1.3.2.9.4 1.8.7 2.8v.1c.2 1 .5 2 .8 3 1.1 3.7 2.2 6.7 3.3 9.1.9 1.9 3 4.9 5.1 6.6 3.5 2.7 7.2.3 5.5-1.9-1.4-1.8-1-4.3-.7-5.4.3-1.1 16.5-29.3 21.1-38.9 2.4-5.1 12-24.4 16-36.3 2.1-6.3 6.2-19.8 6-29.3m-74.3 10.9c-5.1-5.8-17.1-15.9-31.5-20.2-.1 0-5.3-1.6-6.6-2.1-1.2-.5-2.3-1.1-2.4-1.1-1.9-.7-2.7 1.4-1.5 2.5.8.7 2.1 1.9 3.8 3.6 10.7 10.1 29 26.8 42.4 62.4 0 0 1.1 3 1.6 4.3.9 2.3 3.2 1.8 3.4-.6.9-7.7 2.5-15.2 4.5-22.6 1.1-4-7.4-19.1-13.7-26.2" style="fill:#58b947"/>
  <path d="M609.4 335.5c0-4.6 3.7-8.3 8.3-8.3 4.6 0 8.2 3.7 8.2 8.3 0 4.6-3.7 8.3-8.2 8.3-4.6-.1-8.3-3.8-8.3-8.3m15.5 0c0-4-3.3-7.2-7.2-7.2-4 0-7.2 3.2-7.2 7.2s3.2 7.3 7.2 7.3c3.9-.1 7.2-3.3 7.2-7.3m-3.1 4.6h-1.3l-2.6-4.2h-2.1v4.2h-1.1v-9.2h4c.8 0 1.5 0 2.2.4.7.4 1 1.2 1 2 0 1.8-1.3 2.5-2.9 2.5l2.8 4.3zm-4.4-5.2c1.3 0 3.3.2 3.3-1.7 0-1.4-1.2-1.6-2.4-1.6h-2.6v3.3h1.7z" class="st0"/>
</svg>
